<svg id="Layer_1" data-name="Layer 1" xmlns="http://www.w3.org/2000/svg" viewBox="0 0 90 90"><defs><style>.cls-1{fill:#0e3d64;}</style></defs><g id="Group_54" data-name="Group 54"><path id="Path_111" data-name="Path 111" class="cls-1" d="M86.76,36.79A59.72,59.72,0,0,0,3.31,36.5a1,1,0,0,0,0,1.4l6.15,6.15A50.1,50.1,0,0,1,80.3,44l0,0,6.43-6.43a.52.52,0,0,0,.11-.73A.35.35,0,0,0,86.76,36.79Z"/><path id="Path_112" data-name="Path 112" class="cls-1" d="M17.11,50.31a1,1,0,0,0,0,1.39l5.69,5.69a31.35,31.35,0,0,1,44.29,0L73,51.52a.63.63,0,0,0,.06-.88l-.06,0A40.24,40.24,0,0,0,17.11,50.31Z"/><path id="Path_113" data-name="Path 113" class="cls-1" d="M30.72,63.92a1,1,0,0,0,0,1.4l5,5a13.07,13.07,0,0,1,18.37,0l5.22-5.22a.62.62,0,0,0,0-.88.12.12,0,0,0,0,0A21,21,0,0,0,30.72,63.92Z"/></g></svg>