<svg id="Layer_1" data-name="Layer 1" xmlns="http://www.w3.org/2000/svg" viewBox="0 0 90 90"><defs><style>.cls-1{fill:#0e3d64;}</style></defs><path class="cls-1" d="M45,8.6c-15.64,0-31.47,3.55-31.47,10.33V71.3c0,6.79,15.83,10.34,31.47,10.34S76.46,78.09,76.46,71.3V18.93C76.46,12.15,60.63,8.6,45,8.6Zm0,3c17.37,0,28.46,4.34,28.46,7.33S62.37,26.27,45,26.27s-28.47-4.35-28.47-7.34S27.62,11.6,45,11.6ZM73.46,71.3c0,3-11.09,7.34-28.46,7.34S16.53,74.29,16.53,71.3v-13C21.86,62,33.48,64,45,64S68.14,62,73.46,58.31Zm0-17.67c0,3-11.09,7.33-28.46,7.33s-28.47-4.34-28.47-7.33V41.28C21.86,45,33.48,46.94,45,46.94S68.14,45,73.46,41.28ZM45,43.94c-17.38,0-28.47-4.35-28.47-7.34v-13c5.32,3.74,16.94,5.67,28.47,5.67s23.14-1.93,28.46-5.67v13C73.46,39.59,62.37,43.94,45,43.94Z"/></svg>