<svg id="Layer_1" data-name="Layer 1" xmlns="http://www.w3.org/2000/svg" viewBox="0 0 181.2 90"><defs><style>.cls-1{fill:#0e3d64;}</style></defs><g id="Group_40" data-name="Group 40"><path id="Path_94" data-name="Path 94" class="cls-1" d="M154.73,14.71H26.47a5.06,5.06,0,0,0-5,5.06V70.23a5.06,5.06,0,0,0,5,5.06H154.73a5.08,5.08,0,0,0,5.06-5.06V19.76A5.07,5.07,0,0,0,154.73,14.71Zm2.9,55.52a2.9,2.9,0,0,1-2.9,2.9H26.47a2.9,2.9,0,0,1-2.9-2.9V19.76a2.92,2.92,0,0,1,2.9-2.9H154.73a2.91,2.91,0,0,1,2.9,2.9Z"/><path id="Path_95" data-name="Path 95" class="cls-1" d="M144.79,23.1H36.41a2.17,2.17,0,0,0-2.17,2.17V64.72a2.17,2.17,0,0,0,2.17,2.17H144.79A2.18,2.18,0,0,0,147,64.72V25.27A2.18,2.18,0,0,0,144.79,23.1Zm0,41.62a0,0,0,0,1,0,0h0l-108.4,0,0-39.47,108.4,0Z"/><path id="Path_96" data-name="Path 96" class="cls-1" d="M55.82,35.43h15.1a1.62,1.62,0,1,0,0-3.23H55.82a1.62,1.62,0,0,0,0,3.23Z"/><path id="Path_97" data-name="Path 97" class="cls-1" d="M77.25,35.43h4.33a1.62,1.62,0,1,0,0-3.23H77.25a1.62,1.62,0,1,0,0,3.23Z"/><path id="Path_98" data-name="Path 98" class="cls-1" d="M89.8,35.43h47.66a1.62,1.62,0,0,0,0-3.23H89.8a1.62,1.62,0,1,0,0,3.23Z"/><path id="Path_99" data-name="Path 99" class="cls-1" d="M99.51,47.25V44.64a5,5,0,0,1,1.09.41,9.24,9.24,0,0,1,1.05.61l1.16-2a7.24,7.24,0,0,0-3.22-1.28v-1h-1.8v1a5.88,5.88,0,0,0-1.49.35,3.81,3.81,0,0,0-1.14.7,3.07,3.07,0,0,0-.74,1,3.34,3.34,0,0,0-.26,1.32v0a3.45,3.45,0,0,0,.24,1.34,2.8,2.8,0,0,0,.69,1,4.05,4.05,0,0,0,1.16.75,12.12,12.12,0,0,0,1.63.57v2.75a5.26,5.26,0,0,1-1.44-.51,11.18,11.18,0,0,1-1.38-.89l-1.35,2a8,8,0,0,0,1.91,1.08,8.25,8.25,0,0,0,2.18.57v1.75h1.8V54.42a5.3,5.3,0,0,0,1.51-.37,4,4,0,0,0,1.14-.71,3.11,3.11,0,0,0,1-2.34v0a3.08,3.08,0,0,0-.9-2.32A6.56,6.56,0,0,0,99.51,47.25Zm-1.63-.43a2.35,2.35,0,0,1-1-.54,1.07,1.07,0,0,1-.24-.68v0a1,1,0,0,1,.29-.7,1.51,1.51,0,0,1,.91-.37Zm2.85,4.33q0,.91-1.23,1.11V49.84a2.38,2.38,0,0,1,1,.54,1.07,1.07,0,0,1,.26.74Z"/><path id="Path_100" data-name="Path 100" class="cls-1" d="M104.54,43.27l.56,2.18,2.11-.52v9.51h2.63V42.23H108Z"/><path id="Path_101" data-name="Path 101" class="cls-1" d="M112.51,54.44h1.06c.1,1-.47,1.59-1.69,1.72l.23,1.09a3.5,3.5,0,0,0,2.36-.77,3.2,3.2,0,0,0,.82-2.47V51.67H112.5Z"/><path id="Path_102" data-name="Path 102" class="cls-1" d="M122.41,43.75a3.28,3.28,0,0,0-.28-.6,2.76,2.76,0,0,0-.37-.46,2.61,2.61,0,0,0-.44-.37,2.38,2.38,0,0,0-1-.39,3.89,3.89,0,0,0-.68,0,3,3,0,0,0-1.16.2,2.62,2.62,0,0,0-.91.54,2.49,2.49,0,0,0-.58.83,2.7,2.7,0,0,0-.21,1v0a2.53,2.53,0,0,0,.19,1,2,2,0,0,0,.54.76,2.51,2.51,0,0,0,.84.48,3.47,3.47,0,0,0,1.11.16,2.32,2.32,0,0,0,.86-.14,2,2,0,0,0,.65-.38,2.4,2.4,0,0,1-.45,1.24,1.29,1.29,0,0,1-1.07.48,2.34,2.34,0,0,1-.86-.16,3.19,3.19,0,0,1-.78-.49l-.86,1.25a4.22,4.22,0,0,0,1.06.64,3.69,3.69,0,0,0,1.4.25,3.12,3.12,0,0,0,1.41-.31,3,3,0,0,0,1-.83,3.85,3.85,0,0,0,.62-1.29,6.2,6.2,0,0,0,.22-1.66v0a6.59,6.59,0,0,0-.07-1A4.08,4.08,0,0,0,122.41,43.75Zm-1.43.71a1.07,1.07,0,0,1-.34.8,1.35,1.35,0,0,1-1,.31,1.39,1.39,0,0,1-1-.31,1,1,0,0,1-.35-.81v0a1.08,1.08,0,0,1,.33-.81,1.31,1.31,0,0,1,1-.32,1.42,1.42,0,0,1,1,.32,1.07,1.07,0,0,1,.35.82Z"/><path id="Path_103" data-name="Path 103" class="cls-1" d="M128.59,45.2a2.31,2.31,0,0,0-.84-.43,3.55,3.55,0,0,0-1-.15,4.9,4.9,0,0,0-.54,0l-.45.09.09-1.3H129V42h-4.61l-.21,3.69,1,.63a4.06,4.06,0,0,1,.59-.19,2.46,2.46,0,0,1,.67-.09,1.6,1.6,0,0,1,1,.27.89.89,0,0,1,.37.76v0a.94.94,0,0,1-.33.77,1.39,1.39,0,0,1-.92.27,2,2,0,0,1-.93-.21,3.91,3.91,0,0,1-.86-.6l-1,1.18a4.09,4.09,0,0,0,1.22.82,4.15,4.15,0,0,0,2.76.12,2.62,2.62,0,0,0,.9-.52,2.3,2.3,0,0,0,.57-.81,2.85,2.85,0,0,0,.21-1.08v0a2.51,2.51,0,0,0-.21-1.08A1.81,1.81,0,0,0,128.59,45.2Z"/><path id="Path_104" data-name="Path 104" class="cls-1" d="M77.65,51.4H75.9a1.08,1.08,0,0,0,0,2.16h1.75a1.08,1.08,0,1,0,0-2.16Z"/><path id="Path_105" data-name="Path 105" class="cls-1" d="M50.65,53.56H69.94a1.08,1.08,0,1,0,0-2.16H50.65a1.08,1.08,0,1,0,0,2.16Z"/><path id="Path_106" data-name="Path 106" class="cls-1" d="M77.65,43.92H67a1.08,1.08,0,1,0,0,2.15H77.65a1.08,1.08,0,1,0,0-2.15Z"/><path id="Path_107" data-name="Path 107" class="cls-1" d="M50.65,46.07h9.29a1.08,1.08,0,1,0,0-2.15H50.65a1.08,1.08,0,1,0,0,2.15Z"/></g></svg>