<svg id="Layer_1" data-name="Layer 1" xmlns="http://www.w3.org/2000/svg" viewBox="0 0 90 90"><defs><style>.cls-1{fill:#0e3d64;}</style></defs><path class="cls-1" d="M66,53.58a2,2,0,0,1-1.42-3.42l5.56-5.55A17.5,17.5,0,0,0,45.39,19.86L40,25.29a2,2,0,1,1-2.82-2.83L42.56,17A21.5,21.5,0,0,1,73,47.44L67.41,53A2,2,0,0,1,66,53.58Z"/><path class="cls-1" d="M32.24,59.76a2,2,0,0,1-1.42-3.41l25.61-25.6a2,2,0,1,1,2.82,2.82L33.65,59.18A2,2,0,0,1,32.24,59.76Z"/><path class="cls-1" d="M32.24,79.25A21.49,21.49,0,0,1,17,42.56L22.59,37a2,2,0,1,1,2.83,2.83l-5.56,5.55A17.5,17.5,0,0,0,44.61,70.14L50,64.71a2,2,0,1,1,2.82,2.83L47.44,73A21.4,21.4,0,0,1,32.24,79.25Z"/></svg>