<svg id="Layer_1" data-name="Layer 1" xmlns="http://www.w3.org/2000/svg" viewBox="0 0 90 90"><defs><style>.cls-1{fill:#9f9f9e;}.cls-2{fill:#d86013;}</style></defs><g id="Group_54" data-name="Group 54"><path id="Path_111" data-name="Path 111" class="cls-1" d="M83.18,37.49a54.6,54.6,0,0,0-76.29-.26.91.91,0,0,0,0,1.28l5.62,5.63a45.79,45.79,0,0,1,64.76,0l0,0,5.88-5.89a.48.48,0,0,0,.09-.67A.38.38,0,0,0,83.18,37.49Z"/><path id="Path_112" data-name="Path 112" class="cls-1" d="M19.5,49.85a.93.93,0,0,0,0,1.28l5.2,5.19a28.67,28.67,0,0,1,40.49,0L70.56,51a.56.56,0,0,0,0-.8l0,0A36.81,36.81,0,0,0,19.5,49.85Z"/><path id="Path_113" data-name="Path 113" class="cls-1" d="M32,62.29a.91.91,0,0,0,0,1.28l4.6,4.61a11.92,11.92,0,0,1,16.79,0l4.77-4.78a.56.56,0,0,0,0-.8s0,0,0-.05A19.21,19.21,0,0,0,32,62.29Z"/></g><rect class="cls-2" x="11.27" y="40.27" width="72.73" height="9.46" rx="4.73" transform="translate(-17.83 42.18) rotate(-40.9)"/></svg>