<svg id="Layer_1" data-name="Layer 1" xmlns="http://www.w3.org/2000/svg" viewBox="0 0 181.2 27.93"><defs><style>.cls-1{fill:#fff;}</style></defs><g id="Group_2" data-name="Group 2"><rect id="Rectangle_9" data-name="Rectangle 9" class="cls-1" x="5.3" y="4.31" width="20.01" height="3.91"/><rect id="Rectangle_10" data-name="Rectangle 10" class="cls-1" x="5.3" y="12.13" width="20.01" height="3.91"/><rect id="Rectangle_11" data-name="Rectangle 11" class="cls-1" x="5.3" y="19.95" width="20.01" height="3.91"/><path id="Path_44" data-name="Path 44" class="cls-1" d="M35.91,9.73a10.36,10.36,0,0,1,2-3.49A9.07,9.07,0,0,1,41.17,3.9a11.34,11.34,0,0,1,8.64,0A9.09,9.09,0,0,1,53,6.24a10.53,10.53,0,0,1,2,3.49,13.13,13.13,0,0,1,.7,4.35,12.84,12.84,0,0,1-.7,4.25,10.21,10.21,0,0,1-2,3.44,9.33,9.33,0,0,1-3.22,2.3,11.62,11.62,0,0,1-8.64,0,9.31,9.31,0,0,1-3.24-2.3,10,10,0,0,1-2-3.44,12.35,12.35,0,0,1-.7-4.25,12.87,12.87,0,0,1,.7-4.35m4.2,6.91a6.84,6.84,0,0,0,1,2.23,5.06,5.06,0,0,0,1.75,1.6,6.09,6.09,0,0,0,5.27,0,5.06,5.06,0,0,0,1.75-1.6,6.61,6.61,0,0,0,1-2.23,10.55,10.55,0,0,0,.31-2.56,11.31,11.31,0,0,0-.31-2.66,6.88,6.88,0,0,0-1-2.3,5,5,0,0,0-1.75-1.61,6.09,6.09,0,0,0-5.27,0,5,5,0,0,0-1.75,1.61,6.9,6.9,0,0,0-1,2.3,11.31,11.31,0,0,0-.31,2.66,10.55,10.55,0,0,0,.31,2.56"/><path id="Path_45" data-name="Path 45" class="cls-1" d="M69.14,3.55a8.59,8.59,0,0,1,3.33.57,6.18,6.18,0,0,1,2.24,1.5A5.72,5.72,0,0,1,76,7.76a8.08,8.08,0,0,1,0,5,5.84,5.84,0,0,1-1.26,2.15,6.31,6.31,0,0,1-2.24,1.5,8.59,8.59,0,0,1-3.33.57H64.31v7.49H59.72V3.55Zm-1.26,9.82a8.57,8.57,0,0,0,1.52-.11,3.5,3.5,0,0,0,1.29-.46,2.39,2.39,0,0,0,.89-1,4,4,0,0,0,0-3.22,2.46,2.46,0,0,0-.89-1,3.67,3.67,0,0,0-1.29-.45,9.64,9.64,0,0,0-1.52-.12H64.32v6.26Z"/><path id="Path_46" data-name="Path 46" class="cls-1" d="M78.47,7.41V3.55H95.58V7.41H89.32v17H84.73v-17Z"/><rect id="Rectangle_12" data-name="Rectangle 12" class="cls-1" x="100.32" y="3.55" width="4.59" height="20.89"/><path id="Path_47" data-name="Path 47" class="cls-1" d="M124.36,9.11a4.7,4.7,0,0,0-1-1.16,4.85,4.85,0,0,0-3-1,5.5,5.5,0,0,0-2.64.6,5,5,0,0,0-1.75,1.61,6.88,6.88,0,0,0-1,2.3,11.31,11.31,0,0,0-.31,2.66,10.55,10.55,0,0,0,.31,2.56,6.78,6.78,0,0,0,1,2.24,5,5,0,0,0,1.75,1.59,5.39,5.39,0,0,0,2.64.6,4.24,4.24,0,0,0,3.29-1.29,6,6,0,0,0,1.45-3.4h4.44a10.56,10.56,0,0,1-.9,3.54,8.34,8.34,0,0,1-1.94,2.69,8.14,8.14,0,0,1-2.8,1.7,10.44,10.44,0,0,1-3.54.59,10.7,10.7,0,0,1-4.32-.84,9.24,9.24,0,0,1-3.24-2.29,10.11,10.11,0,0,1-2-3.44,12.62,12.62,0,0,1-.71-4.26,13.12,13.12,0,0,1,.71-4.34,10.38,10.38,0,0,1,2-3.5A9.42,9.42,0,0,1,116,3.88a11.22,11.22,0,0,1,7.58-.35A9,9,0,0,1,126.34,5a7.66,7.66,0,0,1,2,2.35,8.35,8.35,0,0,1,1,3.22h-4.45a3.77,3.77,0,0,0-.52-1.45"/><path id="Path_48" data-name="Path 48" class="cls-1" d="M133.87,9.73a10.36,10.36,0,0,1,2-3.49,9.07,9.07,0,0,1,3.24-2.34,11.34,11.34,0,0,1,8.64,0A9.09,9.09,0,0,1,151,6.24a10.53,10.53,0,0,1,2,3.49,13.39,13.39,0,0,1,.7,4.35,12.84,12.84,0,0,1-.7,4.25,10.21,10.21,0,0,1-2,3.44,9.42,9.42,0,0,1-3.22,2.3,11.62,11.62,0,0,1-8.64,0,9.31,9.31,0,0,1-3.24-2.3,10,10,0,0,1-2-3.44,12.35,12.35,0,0,1-.7-4.25,12.87,12.87,0,0,1,.7-4.35m4.2,6.91a7,7,0,0,0,1,2.23,5.06,5.06,0,0,0,1.75,1.6,6.09,6.09,0,0,0,5.27,0,5.09,5.09,0,0,0,1.76-1.6,7,7,0,0,0,1-2.23,11.07,11.07,0,0,0,.31-2.56,11.31,11.31,0,0,0-.31-2.66,7.31,7.31,0,0,0-1-2.3,5,5,0,0,0-1.76-1.61,6.09,6.09,0,0,0-5.27,0A5.09,5.09,0,0,0,139,9.12a6.88,6.88,0,0,0-1,2.3,11.31,11.31,0,0,0-.31,2.66,10.55,10.55,0,0,0,.31,2.56"/><path id="Path_49" data-name="Path 49" class="cls-1" d="M162.83,3.55l8.71,14h.06v-14h4.3V24.43h-4.59l-8.69-14h-.06v14h-4.3V3.55Z"/></g></svg>