<svg id="Layer_1" data-name="Layer 1" xmlns="http://www.w3.org/2000/svg" viewBox="0 0 90 90"><defs><style>.cls-1{fill:#0e3d64;}</style></defs><path id="Path_115" data-name="Path 115" class="cls-1" d="M71.31,15.38H18.69a3.31,3.31,0,0,0-3.31,3.31h0V71.3a3.32,3.32,0,0,0,3.31,3.32H71.31a3.31,3.31,0,0,0,3.31-3.31h0V18.7a3.32,3.32,0,0,0-3.31-3.32ZM43.38,70.21a1,1,0,0,1-1,1H19.65a1,1,0,0,1-1-1V49.44a1,1,0,0,1,1-1H42.38a1,1,0,0,1,1,1Zm0-26a1,1,0,0,1-1,1H19.65a1,1,0,0,1-1-1V23.48a1,1,0,0,1,1-1H42.38a1,1,0,0,1,1,1Zm28,26a1,1,0,0,1-1,1H47.64a1,1,0,0,1-1-1V49.44a1,1,0,0,1,1-1H70.36a1,1,0,0,1,1,1Zm0-26a1,1,0,0,1-1,1H47.64a1,1,0,0,1-1-1V23.48a1,1,0,0,1,1-1H70.36a1,1,0,0,1,1,1Z"/></svg>