<svg id="Layer_1" data-name="Layer 1" xmlns="http://www.w3.org/2000/svg" viewBox="0 0 50 50"><defs><style>.cls-1{fill:#f08036;}</style></defs><path class="cls-1" d="M25,31.91a5.29,5.29,0,0,1-5.29-5.3V9.81a5.29,5.29,0,1,1,10.58,0v16.8A5.29,5.29,0,0,1,25,31.91Z"/><path class="cls-1" d="M25,45.75a5.25,5.25,0,0,1-1-.11,4.82,4.82,0,0,1-1-.3,5.15,5.15,0,0,1-.93-.49,5.46,5.46,0,0,1-.79-.65,5.19,5.19,0,0,1-.66-.81,5.19,5.19,0,0,1-.79-1.9,5.16,5.16,0,0,1-.1-1,5.32,5.32,0,0,1,1.55-3.74,5.46,5.46,0,0,1,.79-.65,5.19,5.19,0,0,1,.93-.5,4.8,4.8,0,0,1,1-.29,5.15,5.15,0,0,1,2.07,0,4.89,4.89,0,0,1,1,.29,5.46,5.46,0,0,1,.92.5,5.54,5.54,0,0,1,.8.65,5.32,5.32,0,0,1,1.55,3.74,5.16,5.16,0,0,1-.1,1,5.19,5.19,0,0,1-.79,1.9,5.19,5.19,0,0,1-.66.81,5.54,5.54,0,0,1-.8.65,5.41,5.41,0,0,1-.92.49,4.91,4.91,0,0,1-1,.3A5.07,5.07,0,0,1,25,45.75Z"/></svg>